#N canvas 1920 69 1920 1011 10;
#X text 127 72 this is the delay;
#X obj 284 325 *~ 1.0001;
#X obj 358 437 *~ 0.8;
#X obj 673 436 *~ 0.5;
#X obj 517 429 *~ 0.7;
#X obj 331 613 *~ 0.7;
#X obj 381 638 *~ 1.0002;
#X obj 322 384 delwrite~ chamber_d0 50;
#X obj 355 488 delread~ chamber_d0 25;
#X obj 511 481 delread~ chamber_d1 50;
#X obj 475 373 delwrite~ chamber_d1 100;
#X obj 655 374 delwrite~ chamber_d2 150;
#X obj 669 478 delread~ chamber_d2 100;
#X connect 1 0 5 0;
#X connect 1 0 10 0;
#X connect 1 0 7 0;
#X connect 1 0 11 0;
#X connect 2 0 7 0;
#X connect 3 0 11 0;
#X connect 4 0 10 0;
#X connect 5 0 6 0;
#X connect 8 0 2 0;
#X connect 8 0 5 0;
#X connect 9 0 4 0;
#X connect 9 0 5 0;
#X connect 12 0 3 0;
#X connect 12 0 5 0;
