#N canvas 115 129 1124 632 12;
#X text 54 17 abc;
#X obj 294 398 >;
#X obj 293 438 change;
#X obj 291 475 sel 1;
#X obj 296 512 t b b;
#X obj 296 557 del 6;
#X obj 295 601 pack 1 200;
#X obj 274 643 line~;
#X msg 423 602 0 5;
#X obj 111 147 delwrite~ violin 10;
#X obj 114 193 delread~ violin 10;
#X obj 283 355 env~ 256 128;
#X obj 263 678 *~;
#X obj 304 695 *~ 3;
#X msg 539 356 40;
#X msg 705 406 300;
#X obj 607 227 loadbang;
#X obj 108 62 *~ 1.0001;
#X obj 290 730 *~ 1.0002;
#X connect 1 0 2 0;
#X connect 2 0 3 0;
#X connect 3 0 4 0;
#X connect 4 0 5 0;
#X connect 4 1 8 0;
#X connect 5 0 6 0;
#X connect 6 0 7 0;
#X connect 7 0 12 1;
#X connect 8 0 7 0;
#X connect 10 0 12 0;
#X connect 11 0 1 0;
#X connect 12 0 13 0;
#X connect 13 0 18 0;
#X connect 14 0 1 1;
#X connect 15 0 6 1;
#X connect 16 0 14 0;
#X connect 16 0 15 0;
#X connect 17 0 9 0;
#X connect 17 0 11 0;
