#N canvas 72 96 1848 984 10;
#X text 139 29 start;
#X obj 196 105 *~ 1.0001;
#X obj 207 312 *~ 1.0002;
#X obj 203 148 *~ 100;
#X obj 203 214 clip~ -0.01 0.05;
#X obj 204 278 *~ 0.2;
#X connect 1 0 3 0;
#X connect 3 0 4 0;
#X connect 4 0 5 0;
#X connect 5 0 2 0;
