#N canvas 2521 143 995 666 12;
#X text 455 35 Les go;
#X obj 474 141 *~ 1.0001;
#X obj 342 411 *~ 1.0002;
#X obj 485 316 clip~ -0.25 0.25;
#X obj 478 224 *~ 20;
#X connect 1 0 4 0;
#X connect 3 0 2 0;
#X connect 4 0 3 0;
