#N canvas 337 146 1368 717 12;
#X text 27 10 Ha;
#X obj 216 153 sigmund~;
#X obj 411 165 35;
#X obj 227 253 expr if($f1>$f2 \, $f1-$f2 \, 0);
#X obj 222 318 / 40;
#X obj 323 383 *;
#X obj 312 440 expr (1-$f1)*3000;
#X obj 755 66 loadbang;
#X obj 722 189 1;
#X obj 865 189 1;
#X obj 757 245 *;
#X obj 747 296 osc~;
#X obj 874 304 mtof;
#X obj 880 356 *;
#X obj 722 361 *~ 1;
#X obj 730 402 +~ 1;
#X obj 745 442 osc~;
#X obj 902 431 pack 0 10;
#X obj 894 485 line;
#X obj 753 510 *~;
#X obj 860 537 * 1;
#X obj 758 566 +~ 440;
#X obj 858 593 osc~;
#X obj 293 559 pack 0 5;
#X obj 334 620 line~;
#X obj 408 669 *~;
#X obj 1063 356 sel 0 1;
#X obj 1060 398 1;
#X obj 1137 414 0.5;
#X obj 208 101 *~ 1.0001;
#X obj 471 672 *~ 1.0002;
#X connect 1 0 12 0;
#X connect 1 1 3 0;
#X connect 2 0 3 1;
#X connect 3 0 4 0;
#X connect 4 0 5 1;
#X connect 4 0 23 0;
#X connect 4 0 5 0;
#X connect 5 0 6 0;
#X connect 6 0 17 0;
#X connect 7 0 8 0;
#X connect 7 0 9 0;
#X connect 7 0 2 0;
#X connect 8 0 10 1;
#X connect 9 0 13 1;
#X connect 10 0 11 0;
#X connect 11 0 14 0;
#X connect 12 0 10 0;
#X connect 12 0 13 0;
#X connect 12 0 20 0;
#X connect 13 0 15 1;
#X connect 14 0 15 0;
#X connect 15 0 16 0;
#X connect 16 0 19 0;
#X connect 17 0 18 0;
#X connect 18 0 19 1;
#X connect 19 0 21 0;
#X connect 20 0 21 1;
#X connect 21 0 22 0;
#X connect 22 0 25 0;
#X connect 23 0 24 0;
#X connect 24 0 25 1;
#X connect 25 0 30 0;
#X connect 25 0 30 1;
#X connect 26 0 27 0;
#X connect 26 1 28 0;
#X connect 27 0 20 1;
#X connect 29 0 1 0;
