#N canvas 246 97 1440 983 10;
#X text 142 19 start;
#X obj 242 197 clip~ -1 1;
#X obj 266 81 osc~ 8.988;
#X obj 242 146 *~ 3.6659;
#X obj 242 280 *~ 0.354;
#X obj 242 309 +~ 0.645;
#X obj 90 119 *~ 1.0001;
#X obj 138 380 *~ 1.0002;
#X obj 140 333 *~;
#X floatatom 266 45 5 0 0 0 - - -;
#X obj 266 12 route osc_rate-5-1-20-9;
#X connect 1 0 4 0;
#X connect 2 0 3 0;
#X connect 3 0 1 0;
#X connect 4 0 5 0;
#X connect 5 0 8 1;
#X connect 6 0 8 0;
#X connect 8 0 7 0;
#X connect 9 0 2 0;
#X connect 10 0 9 0;
